<?xml version="1.0" encoding="utf-8"?>
<!-- Generator: Adobe Illustrator 21.0.2, SVG Export Plug-In . SVG Version: 6.00 Build 0)  -->
<svg version="1.1" id="Capa_1" xmlns="http://www.w3.org/2000/svg" xmlns:xlink="http://www.w3.org/1999/xlink" x="0px" y="0px"
	 viewBox="0 0 25 25" style="enable-background:new 0 0 25 25;" xml:space="preserve">
<g>
	<g>
		<g>
			<path d="M12.5,15c1.4,0,2.5-1.1,2.5-2.5c0-0.5-0.2-1-0.5-1.5c-0.5-0.6-1.2-1-2-1s-1.6,0.4-2,1c-0.3,0.5-0.5,1-0.5,1.5
				C10,13.9,11.1,15,12.5,15z"/>
			<polygon points="18,9.4 18,7.3 18,7 17.7,7 15.6,7 15.6,9.4 			"/>
			<path d="M12.5,0C5.6,0,0,5.6,0,12.5S5.6,25,12.5,25S25,19.4,25,12.5S19.4,0,12.5,0z M19.6,11v5.8c0,1.5-1.2,2.7-2.7,2.7H8.1
				c-1.5,0-2.7-1.2-2.7-2.7V11V8.1c0-1.5,1.2-2.7,2.7-2.7h8.7c1.5,0,2.7,1.2,2.7,2.7V11H19.6z"/>
			<path d="M16.4,12.5c0,2.1-1.7,3.9-3.9,3.9s-3.9-1.7-3.9-3.9c0-0.5,0.1-1,0.3-1.5H6.8v5.8c0,0.8,0.6,1.4,1.4,1.4h8.7
				c0.8,0,1.4-0.6,1.4-1.4V11h-2.1C16.3,11.5,16.4,12,16.4,12.5z"/>
		</g>
	</g>
</g>
</svg>
